<svg id="icon" height="512" viewBox="0 0 128 128" width="512" xmlns="http://www.w3.org/2000/svg"><path d="m70.663 118.648h-13.326l4.378-72.19h4.57z" fill="#d9e2e9"/><path d="m70.664 118.65h-3.904l-4.381-72.191h3.904z" fill="#c1cdd3"/><path d="m71.726 119.648h-15.452l4.5-74.19h6.453zm-13.326-2h11.2l-4.257-70.19h-2.687z" fill="#2f3a5a"/><path d="m64.157 41.935-6.343-6.495 5.402-33.812 5.533-.626.495 42.578z" fill="#d9e2e9"/><path d="m69.243 43.575-4.056-1.301-.011-40.873 3.568-.401z" fill="#c1cdd3"/><path d="m69.244 44.58a1.009 1.009 0 0 1 -.308-.048l-5.086-1.645a1 1 0 0 1 -.408-.253l-6.344-6.5a1 1 0 0 1 -.272-.856l5.4-33.813a1 1 0 0 1 .874-.831l5.537-.626a.988.988 0 0 1 .774.244 1 1 0 0 1 .338.738l.5 42.578a1 1 0 0 1 -1 1.012zm-4.544-3.52 3.528 1.14-.466-40.08-3.678.416-5.204 32.564z" fill="#2f3a5a"/><path d="m24.459 63.33 35.401-21.818 2.779 6.314-2.887 7.755-31.826 12.765z" fill="#d9e2e9"/><path d="m26.994 66.5 1.203 1.735-.271.108-3.47-5.01 35.407-21.819 1.637 3.72z" fill="#c1cdd3"/><path d="m27.926 69.346a1 1 0 0 1 -.823-.432l-3.466-5.014a1 1 0 0 1 .3-1.419l35.4-21.818a1 1 0 0 1 1.44.448l2.779 6.314a1 1 0 0 1 .022.751l-2.889 7.754a1 1 0 0 1 -.565.58l-31.824 12.764a1 1 0 0 1 -.374.072zm-2.045-5.717 2.413 3.492 30.675-12.3 2.591-6.961-2.153-4.892z" fill="#2f3a5a"/><path d="m64.353 51.406 3.076-5.328 8.797-2.246 27.318 21.086-2.961 5.603z" fill="#d9e2e9"/><path d="m102.405 67.064-1.822 3.459-36.231-19.118 1.963-3.384z" fill="#c1cdd3"/><path d="m100.582 71.521a1 1 0 0 1 -.466-.116l-36.23-19.114a1 1 0 0 1 -.4-1.384l3.077-5.328a1 1 0 0 1 .619-.469l8.8-2.247a1 1 0 0 1 .858.177l27.318 21.086a1 1 0 0 1 .273 1.259l-2.961 5.6a1 1 0 0 1 -.888.536zm-34.844-20.514 34.427 18.164 2.1-3.976-26.265-20.274-7.916 2.022z" fill="#2f3a5a"/><circle cx="64.353" cy="45.272" fill="#c1cdd3" r="6.219"/><path d="m64.353 52.491a7.219 7.219 0 1 1 7.219-7.219 7.228 7.228 0 0 1 -7.219 7.219zm0-12.438a5.219 5.219 0 1 0 5.219 5.219 5.225 5.225 0 0 0 -5.219-5.219z" fill="#2f3a5a"/><path d="m49.802 118.813h28.397v8.187h-28.397z" fill="#c1cdd3"/><path d="m78.2 128h-28.4a1 1 0 0 1 -1-1v-8.187a1 1 0 0 1 1-1h28.4a1 1 0 0 1 1 1v8.187a1 1 0 0 1 -1 1zm-27.4-2h26.4v-6.187h-26.4z" fill="#2f3a5a"/></svg>