<svg height="512" viewBox="0 0 512 512" width="512" xmlns="http://www.w3.org/2000/svg"><g id="Flat"><g fill="#379fc4"><path d="m481.71875 176.83252a144.37461 144.37461 0 0 0 -2.40723-15.15674l15.64453-3.35156a160.5129 160.5129 0 0 1 2.67676 16.84326z"/><path d="m238.084 83.05078-10.72658-11.87207a160.08226 160.08226 0 0 1 13.249-10.73975l9.39843 12.94825a144.20552 144.20552 0 0 0 -11.92085 9.66357z"/><path d="m285.68652 346.49805a160.2904 160.2904 0 0 1 -15.92578-6.1045l6.51563-14.61328a144.08114 144.08114 0 0 0 14.33008 5.49219z"/><path d="m473.16016 277.93213-13.32032-8.86426 3.60938-5.42383a143.94508 143.94508 0 0 0 19.05859-71.64404h16a159.95166 159.95166 0 0 1 -21.32617 79.85938q-.12744.22119-.26855.43359z"/><path d="m262.74609 65.12061-8-13.85645a159.95988 159.95988 0 0 1 79.82227-21.46094h6.43164v16h-6.42969a143.93892 143.93892 0 0 0 -71.82422 19.31739z"/><path d="m254.74609 332.73584a159.97458 159.97458 0 0 1 -58.498-58.39795l-3.94629-6.91357 13.89648-7.93164 3.92578 6.87793a143.90559 143.90559 0 0 0 52.62207 52.50878z"/></g><path d="m360 488h-48l14.69-257.1 1.31-22.9h16l1.31 22.9z" fill="#8bcde8"/><path d="m350.18994 154.6a198.33825 198.33825 0 0 1 -14.18994 37.4l-7.37012-39.31006-7.18994-38.34a111.6725 111.6725 0 0 1 22.56006-90.34994l7.90991 34.28a198.87717 198.87717 0 0 1 -1.71997 96.32z" fill="#8bcde8"/><path d="m336 192-30.34009 26.03-29.62991 25.40994a111.66105 111.66105 0 0 1 -89.52 25.63013l25.73-23.99007a198.983 198.983 0 0 1 123.76-53.08z" fill="#8bcde8"/><path d="m477.49 282.92993-33.6399-10.28993a199.01072 199.01072 0 0 1 -107.8501-80.64l37.74 13.28 36.79 12.94a111.65623 111.65623 0 0 1 66.96 64.70993z" fill="#8bcde8"/><path d="m350.18994 154.6a198.33825 198.33825 0 0 1 -14.18994 37.4l-7.37012-39.31006a38.94142 38.94142 0 0 1 7.37012-.68994 39.762 39.762 0 0 1 14.18994 2.6z" fill="#379fc4"/><path d="m296.51 198.3999a198.06864 198.06864 0 0 1 39.49-6.3999l-30.34009 26.03a39.70357 39.70357 0 0 1 -9.14991-19.6301z" fill="#379fc4"/><path d="m344 208 1.31006 22.8999a39.9452 39.9452 0 0 1 -18.62012 0l1.31006-22.8999z" fill="#379fc4"/><path d="m373.74 205.28a40.1251 40.1251 0 0 1 -12.47 17.7 198.47537 198.47537 0 0 1 -25.27-30.98z" fill="#379fc4"/><circle cx="336" cy="192" fill="#8bcde8" r="24"/><path d="m184 360-10 24-6.67 16-6.66 16-6.67 16-10 24h-120l10-24 6.67-16 6.66-16 6.67-16 10-24z" fill="#2f4054"/><path d="m167.33008 400 6.66992-16h-31.33008l9.99-24h-17.32984l-10 24h-22.67017l10-24h-17.31982l-10 24h-31.34009l-6.66992 16h31.33984l-6.66992 16h-31.33008l-6.66992 16h31.33008l-10 24h17.32983l10-24h22.67017l-10 24h17.33984l10-24h31.33008l6.66992-16h-31.33984l6.66992-16zm-55.33008 16h-22.66992l6.66992-16h22.66992z" fill="#262d43"/><path d="m104 456h32v32h-32z" fill="#c5d5e1"/><path d="m256 456h32v32h-32z" fill="#c5d5e1"/><path d="m336.125 360-10 24-6.67 16-6.66 16-6.67 16-10 24h-120l10-24 6.67-16 6.66-16 6.67-16 10-24z" fill="#2f4054"/><path d="m319.45508 400 6.66992-16h-31.33008l9.99-24h-17.32984l-10 24h-22.67017l10-24h-17.31982l-10 24h-31.34009l-6.66992 16h31.33984l-6.66992 16h-31.33008l-6.66992 16h31.33008l-10 24h17.32983l10-24h22.67017l-10 24h17.33984l10-24h31.33008l6.66992-16h-31.33984l6.66992-16zm-55.33008 16h-22.66992l6.66992-16h22.66992z" fill="#262d43"/><path d="m120 88a52.90752 52.90752 0 0 1 -37.65723-15.59814 37.25407 37.25407 0 0 0 -52.68554 0l-11.31446-11.31348a53.25533 53.25533 0 0 1 75.31446 0 37.25409 37.25409 0 0 0 52.68554 0l11.31446 11.31348a52.90752 52.90752 0 0 1 -37.65723 15.59814z" fill="#8bcde8"/><path d="m128 146.74512a52.90749 52.90749 0 0 1 -37.65723-15.59812l11.31446-11.31347a37.25409 37.25409 0 0 0 52.68554 0 53.25533 53.25533 0 0 1 75.31446 0l-11.31446 11.31347a37.25409 37.25409 0 0 0 -52.68554 0 52.90749 52.90749 0 0 1 -37.65723 15.59812z" fill="#8bcde8"/><path d="m128 205.25488a52.90752 52.90752 0 0 1 -37.65723-15.59814 37.25409 37.25409 0 0 0 -52.68554 0l-11.31446-11.31348a53.25535 53.25535 0 0 1 75.31446 0 37.25409 37.25409 0 0 0 52.68554 0 53.25535 53.25535 0 0 1 75.31446 0l-11.31446 11.31348a37.25409 37.25409 0 0 0 -52.68554 0 52.90752 52.90752 0 0 1 -37.65723 15.59814z" fill="#8bcde8"/><path d="m80 480h304v16h-304z" fill="#2f4054"/><path d="m120 261.25488a52.90752 52.90752 0 0 1 -37.65723-15.59814 37.25409 37.25409 0 0 0 -52.68554 0l-11.31446-11.31348a53.25535 53.25535 0 0 1 75.31446 0 37.25409 37.25409 0 0 0 52.68554 0l11.31446 11.31348a52.90752 52.90752 0 0 1 -37.65723 15.59814z" fill="#8bcde8"/></g></svg>