<svg height="512" viewBox="0 0 128 128" width="512" xmlns="http://www.w3.org/2000/svg"><g><g fill="#ff9800"><path d="m34.822 91.5h6v10.875h-6z"/><path d="m12.947 91.5h6v10.875h-6z"/></g><path d="m64 117.375h-20.333a1.75 1.75 0 0 1 0-3.5h18.583v-10.5a1.75 1.75 0 0 1 1.75-1.75h33.833a1.75 1.75 0 0 1 0 3.5h-32.083v10.5a1.75 1.75 0 0 1 -1.75 1.75z" fill="#fdd82e"/><path d="m39.5 112.5h13.288v6h-13.288z" fill="#ff9800"/><path d="m59.491 79.875h74.25v9h-74.25z" fill="#eaeaf0" transform="matrix(0 1 -1 0 180.991 -12.241)"/><path d="m84.146 109.5h24.94v8h-24.94z" fill="#0e8bce"/><path d="m90.616 50.096h12v28.086h-12z" fill="#0e8bce"/><path d="m121.5 24.19-5.99 10-1.94 3.25-4.94 8.26-1.95 3.24-4.94 8.25-1.94 3.25-4.94 8.26-1.94 3.24-5.84 9.75h-60.2l5.99-10.01 1.94-3.24 4.95-8.25 1.94-3.25 4.94-8.26 1.95-3.24 4.94-8.25 1.94-3.25 5.84-9.75z" fill="#3ba9fd"/><path d="m113.57 37.44 1.94-3.25a1.7 1.7 0 0 0 -.89-.25h-17.3l5.3-8.85a1.626 1.626 0 0 0 .24-.9h-3.79l-5.83 9.75h-15.83l5.3-8.85a1.725 1.725 0 0 0 .25-.9h-3.79l-5.83 9.75h-17.87l-1.94 3.25a1.7 1.7 0 0 0 .89.25h16.82l-4.79 8h-17.86l-1.95 3.24a1.635 1.635 0 0 0 .9.26h16.82l-4.79 8h-17.87l-1.94 3.25a1.7 1.7 0 0 0 .89.25h16.82l-4.79 8h-17.87l-1.94 3.24a1.635 1.635 0 0 0 .9.26h16.82l-5.3 8.85a1.725 1.725 0 0 0 -.25.9h3.79l5.83-9.75h15.83l-5.3 8.85a1.725 1.725 0 0 0 -.25.9h3.79l5.84-9.75h18.35l1.94-3.24a1.635 1.635 0 0 0 -.9-.26h-17.3l4.79-8h18.35l1.94-3.25a1.7 1.7 0 0 0 -.89-.25h-17.3l4.79-8h18.34l1.95-3.24a1.635 1.635 0 0 0 -.9-.26h-17.3l4.79-8zm-40.98 31h-15.83l4.79-8h15.82zm6.88-11.5h-15.83l4.79-8h15.83zm6.88-11.5h-15.82l4.79-8h15.82z" fill="#eaeaf0"/><g fill="#ff9800"><path d="m23 41.25a1.75 1.75 0 0 1 -1.75-1.75v-33a1.75 1.75 0 0 1 3.5 0v33a1.75 1.75 0 0 1 -1.75 1.75z"/><path d="m11.333 36.417a1.75 1.75 0 0 1 -1.233-2.987l23.33-23.33a1.75 1.75 0 1 1 2.475 2.474l-23.335 23.326a1.745 1.745 0 0 1 -1.237.517z"/><path d="m39.5 24.75h-33a1.75 1.75 0 0 1 0-3.5h33a1.75 1.75 0 0 1 0 3.5z"/><path d="m34.667 36.417a1.745 1.745 0 0 1 -1.237-.517l-23.33-23.33a1.75 1.75 0 1 1 2.47-2.47l23.335 23.33a1.75 1.75 0 0 1 -1.238 2.987z"/></g><circle cx="23" cy="23" fill="#fdd82e" r="12"/><path d="m6.981 97.5h39.808v24h-39.808z" fill="#fdd82e"/><path d="m12.98 115.75a1.75 1.75 0 0 1 -1.75-1.75v-6.25a1.75 1.75 0 0 1 3.5 0v6.25a1.749 1.749 0 0 1 -1.75 1.75z" fill="#ff9800"/><path d="m26.884 117.375a1.716 1.716 0 0 1 -.573-.1 1.749 1.749 0 0 1 -1.08-2.226l1.318-3.8h-1.788a1.749 1.749 0 0 1 -1.653-2.323l2.123-6.125a1.75 1.75 0 0 1 3.307 1.146l-1.318 3.8h1.788a1.749 1.749 0 0 1 1.653 2.323l-2.123 6.13a1.751 1.751 0 0 1 -1.654 1.175z" fill="#ff9800"/><path d="m76.712 115.5h39.808v6h-39.808z" fill="#eaeaf0"/></g></svg>