<?xml version="1.0" encoding="iso-8859-1"?>
<!-- Generator: Adobe Illustrator 19.0.0, SVG Export Plug-In . SVG Version: 6.00 Build 0)  -->
<svg version="1.1" id="Capa_1" xmlns="http://www.w3.org/2000/svg" xmlns:xlink="http://www.w3.org/1999/xlink" x="0px" y="0px"
	 viewBox="0 0 512 512" style="enable-background:new 0 0 512 512;" xml:space="preserve">
<path style="fill:#FFDB4C;" d="M448.418,192.492c0-105.254-84.475-190.776-189.326-192.467
	C152.592-1.693,63.536,85.787,63.434,192.302c-0.066,68.225,35.366,128.174,88.843,162.411
	c15.698,10.049,25.378,27.232,25.378,45.871v25.253c0,5.843,4.736,10.58,10.58,10.58h135.385c5.843,0,10.58-4.736,10.58-10.58
	v-24.793c0-18.691,9.455-36.161,25.207-46.222C412.927,320.636,448.418,260.711,448.418,192.492z"/>
<g>
	<path style="fill:#AEAFB0;" d="M315.178,481.109H196.673c-4.872,0-9.114-3.327-10.275-8.059l-5.77-23.533
		c-1.635-6.665,3.412-13.1,10.275-13.1h130.046c6.863,0,11.909,6.433,10.275,13.1l-5.77,23.533
		C324.293,477.782,320.051,481.109,315.178,481.109z"/>
	<path style="fill:#AEAFB0;" d="M289.967,512h-68.081c-5.843,0-10.58-4.736-10.58-10.58v-20.312h89.24v20.312
		C300.546,507.264,295.81,512,289.967,512z"/>
</g>
<rect x="233.3" y="277.458" style="fill:#98D4AD;" width="49.195" height="158.957"/>
<path style="fill:#FFFFFF;" d="M258.751,173.343h-1.703c-13.115,0-23.747,10.631-23.747,23.747v80.367h49.197V197.09
	C282.498,183.975,271.865,173.343,258.751,173.343z"/>
<g>
	<path style="fill:#FFC433;" d="M255.882,126.547c-4.383,0-7.935-3.552-7.935-7.935V60.897c0-4.383,3.552-7.935,7.935-7.935
		c4.383,0,7.935,3.552,7.935,7.935v57.717C263.816,122.995,260.264,126.547,255.882,126.547z"/>
	<path style="fill:#FFC433;" d="M218.272,146.953c-2.03,0-4.061-0.774-5.611-2.323l-37.618-37.618c-3.099-3.1-3.099-8.123,0-11.222
		c3.1-3.098,8.123-3.098,11.222,0l37.619,37.618c3.099,3.1,3.099,8.123,0,11.222C222.334,146.178,220.303,146.953,218.272,146.953z"
		/>
	<path style="fill:#FFC433;" d="M339.745,92.767c-1.55-1.551-3.581-2.325-5.612-2.325c-2.03,0-4.059,0.773-5.609,2.322
		c-0.253,0.253-1.354,1.353-3.028,3.027l0,0c0,0-1.565,1.565-4.035,4.035c-10.918,10.917-30.557,30.556-30.557,30.556l0.001,0.001
		c-1.673,1.673-2.772,2.772-3.025,3.024c-3.1,3.098-3.102,8.122-0.003,11.221c1.55,1.551,3.581,2.325,5.612,2.325
		c2.03,0,4.059-0.773,5.609-2.322c0.253-0.253,1.354-1.353,3.028-3.027l0,0c0,0,1.674-1.675,4.308-4.308
		c10.969-10.969,30.284-30.283,30.284-30.283l-0.001-0.001c1.673-1.673,2.772-2.772,3.025-3.024
		C342.842,100.889,342.844,95.865,339.745,92.767z"/>
</g>
<path style="opacity:0.1;enable-background:new    ;" d="M259.241,0.024c-9.247-0.149-18.357,0.389-27.293,1.538
	c94.721,12.054,167.953,92.933,167.953,190.929c0,68.219-35.491,128.143-89.014,162.33c-15.752,10.061-25.207,27.531-25.207,46.222
	v24.793c0,5.843-4.736,10.579-10.58,10.579h-2.67c6.863,0,11.909,6.433,10.275,13.1l-5.77,23.533
	c-1.161,4.732-5.403,8.059-10.275,8.059h-14.631v20.312c0,5.843-4.736,10.58-10.58,10.58h48.666c5.843,0,10.58-4.736,10.58-10.58
	v-20.312h14.631c4.872,0,9.114-3.328,10.275-8.059l5.77-23.533c1.635-6.665-3.412-13.1-10.275-13.1h2.67
	c5.843,0,10.58-4.736,10.58-10.579v-24.793c0-18.691,9.455-36.161,25.207-46.222c53.523-34.187,89.014-94.111,89.014-162.33
	C448.567,87.239,364.091,1.716,259.241,0.024z"/>
<g>
</g>
<g>
</g>
<g>
</g>
<g>
</g>
<g>
</g>
<g>
</g>
<g>
</g>
<g>
</g>
<g>
</g>
<g>
</g>
<g>
</g>
<g>
</g>
<g>
</g>
<g>
</g>
<g>
</g>
</svg>
