<svg id="Capa_1" enable-background="new 0 0 501.014 501.014" height="512" viewBox="0 0 501.014 501.014" width="512" xmlns="http://www.w3.org/2000/svg"><g><g><path d="m344.785 476.138h-44.913c-8.029 0-14.358-6.837-13.739-14.843l17.26-223.056h37.871l17.26 223.056c.619 8.005-5.709 14.843-13.739 14.843z" fill="#909ba6"/></g><g><path d="m358.524 461.295-17.26-223.056h-30l17.26 223.056c.619 8.005-5.71 14.843-13.739 14.843h30c8.03 0 14.359-6.838 13.739-14.843z" fill="#7e8b96"/></g><g><path d="m322.329 24.876c-8.816 0-15.963 7.147-15.963 15.963v173.018h34.184l7.454-34.537c7.214-33.422 6.967-68.023-.721-101.339l-9.4-40.732c-1.672-7.242-8.121-12.373-15.554-12.373z" fill="#b9c3cd"/></g><g><path d="m499.304 314.816c3.966-7.874.799-17.472-7.075-21.438l-154.521-77.836-15.379 30.53 27.491 22.195c26.604 21.478 57.617 36.824 90.83 44.946l40.606 9.929c7.22 1.764 14.704-1.688 18.048-8.326z" fill="#b9c3cd"/></g><g><path d="m145.354 314.816c-3.966-7.874-.799-17.472 7.075-21.438l154.521-77.836 15.379 30.53-27.491 22.195c-26.603 21.478-57.616 36.824-90.829 44.946l-40.606 9.929c-7.221 1.764-14.705-1.688-18.049-8.326z" fill="#b9c3cd"/></g><g><circle cx="321.518" cy="224.353" fill="#dce6eb" r="30.748"/></g><g><path d="m115.367 141.365h-107.867c-4.143 0-7.5-3.358-7.5-7.5s3.357-7.5 7.5-7.5h107.867c6.95 0 12.604-5.654 12.604-12.604s-5.654-12.604-12.604-12.604c-4.143 0-7.5-3.358-7.5-7.5s3.357-7.5 7.5-7.5c15.221 0 27.604 12.383 27.604 27.604.001 15.221-12.383 27.604-27.604 27.604z" fill="#ddebfd"/></g><g><path d="m206.595 187.711h-199.095c-4.143 0-7.5-3.358-7.5-7.5s3.357-7.5 7.5-7.5h199.095c6.949 0 12.604-5.654 12.604-12.604s-5.654-12.604-12.604-12.604c-4.143 0-7.5-3.358-7.5-7.5s3.357-7.5 7.5-7.5c15.221 0 27.604 12.383 27.604 27.604-.001 15.22-12.384 27.604-27.604 27.604z" fill="#ddebfd"/></g></g></svg>