<?xml version="1.0" encoding="iso-8859-1"?>
<!-- Generator: Adobe Illustrator 19.0.0, SVG Export Plug-In . SVG Version: 6.00 Build 0)  -->
<svg version="1.1" id="Capa_1" xmlns="http://www.w3.org/2000/svg" xmlns:xlink="http://www.w3.org/1999/xlink" x="0px" y="0px"
	 viewBox="0 0 512 512" style="enable-background:new 0 0 512 512;" xml:space="preserve">
<polygon style="fill:#A9E1FA;" points="285.999,256 225.999,256 215.999,497 295.999,497 "/>
<polygon style="fill:#84D4F0;" points="255.999,497 295.999,497 285.999,256 255.999,256 "/>
<path style="fill:#CBEDFD;" d="M417.232,338.736L276.714,265.87c-12.971-6.726-28.459-6.726-41.43,0L94.766,338.736l-34.337-59.472
	l133.364-85.259c12.31-7.87,20.054-21.284,20.715-35.88L221.662,0h68.674l7.154,158.125c0.661,14.597,8.405,28.01,20.716,35.881
	l133.363,85.258L417.232,338.736z"/>
<path style="fill:#A9E1FA;" d="M318.206,194.005c-12.311-7.871-20.055-21.284-20.716-35.881L290.336,0h-34.337v260.826
	c7.115,0,14.229,1.681,20.715,5.044l140.519,72.866l34.337-59.473L318.206,194.005z"/>
<rect x="125.999" y="482" style="fill:#7E88FD;" width="260" height="30"/>
<path style="fill:#E4F7FF;" d="M255.999,246c-19.299,0-35-15.701-35-35s15.701-35,35-35s35,15.701,35,35S275.298,246,255.999,246z"
	/>
<path style="fill:#CBEDFD;" d="M255.999,176v70c19.299,0,35-15.701,35-35S275.298,176,255.999,176z"/>
<rect x="255.999" y="482" style="fill:#6E76E3;" width="130" height="30"/>
<g>
</g>
<g>
</g>
<g>
</g>
<g>
</g>
<g>
</g>
<g>
</g>
<g>
</g>
<g>
</g>
<g>
</g>
<g>
</g>
<g>
</g>
<g>
</g>
<g>
</g>
<g>
</g>
<g>
</g>
</svg>
