<?xml version="1.0" encoding="iso-8859-1"?>
<!-- Generator: Adobe Illustrator 19.0.0, SVG Export Plug-In . SVG Version: 6.00 Build 0)  -->
<svg version="1.1" id="Capa_1" xmlns="http://www.w3.org/2000/svg" xmlns:xlink="http://www.w3.org/1999/xlink" x="0px" y="0px"
	 viewBox="0 0 512 512" style="enable-background:new 0 0 512 512;" xml:space="preserve">
<rect x="289.78" y="366.39" style="fill:#C7C9CC;" width="81.89" height="75.1"/>
<path style="fill:#7FAFE3;" d="M378.996,441.486h-96.539c-9.497,0-17.197,7.699-17.197,17.197v7.37c0,5.053,4.096,9.149,9.15,9.149
	h112.634c5.053,0,9.15-4.096,9.15-9.149v-7.37C396.193,449.185,388.493,441.486,378.996,441.486z"/>
<circle style="fill:#FADA6D;" cx="143.85" cy="180.65" r="97.06"/>
<path style="fill:#F2C55A;" d="M102.349,92.895c-32.84,15.558-55.555,49.002-55.555,87.755c0,53.603,43.454,97.056,97.056,97.056
	c36.789,0,68.796-20.47,85.256-50.64C106.053,255.78,46.794,162.681,102.349,92.895z"/>
<g>
	
		<ellipse transform="matrix(-0.4133 -0.9106 0.9106 -0.4133 -20.0725 331.0956)" style="fill:#EA7786;" cx="96.627" cy="172.014" rx="12.67" ry="15.91"/>
	
		<ellipse transform="matrix(0.4133 0.9106 -0.9106 0.4133 226.942 -79.4836)" style="fill:#EA7786;" cx="175.153" cy="136.372" rx="12.67" ry="15.91"/>
</g>
<g>
	<path style="fill:#495059;" d="M99.853,164.179c-2.853,0-5.578-1.635-6.834-4.402l-2.322-5.116
		c-1.712-3.772-0.043-8.217,3.729-9.929c3.776-1.712,8.218-0.042,9.93,3.729l2.322,5.116c1.712,3.771,0.043,8.217-3.729,9.929
		C101.942,163.963,100.889,164.179,99.853,164.179z"/>
	<path style="fill:#495059;" d="M161.491,136.203c-2.854,0-5.579-1.636-6.835-4.403l-2.321-5.116
		c-1.711-3.772-0.041-8.217,3.731-9.929c3.772-1.711,8.216-0.04,9.929,3.731l2.321,5.116c1.711,3.772,0.041,8.217-3.731,9.929
		C163.58,135.987,162.527,136.203,161.491,136.203z"/>
	<path style="fill:#495059;" d="M127.566,155.174c-2.74,0-5.48-0.582-8.033-1.746c-3.77-1.719-5.432-6.167-3.713-9.936
		c1.719-3.77,6.166-5.432,9.936-3.713c0.674,0.307,2.033,0.716,3.595,0.009c1.559-0.708,2.147-2.003,2.36-2.712
		c1.188-3.968,5.369-6.222,9.336-5.034c3.968,1.188,6.222,5.368,5.033,9.336c-1.604,5.361-5.443,9.76-10.53,12.068
		C133.014,154.599,130.29,155.174,127.566,155.174z"/>
</g>
<g>
	<path style="fill:#F4BC48;" d="M252.607,143.104c-2.943,0-5.735-1.744-6.932-4.632c-1.586-3.827,0.231-8.214,4.059-9.799
		l17.218-7.132c3.828-1.585,8.214,0.232,9.799,4.059c1.586,3.827-0.232,8.214-4.059,9.799l-17.218,7.132
		C254.536,142.919,253.564,143.104,252.607,143.104z"/>
	<path style="fill:#F4BC48;" d="M188.895,79.397c-0.957,0-1.929-0.184-2.867-0.573c-3.827-1.585-5.645-5.973-4.059-9.799
		l7.132-17.218c1.586-3.828,5.974-5.642,9.799-4.059c3.827,1.586,5.645,5.973,4.059,9.799l-7.132,17.218
		C194.631,77.653,191.839,79.397,188.895,79.397z"/>
	<path style="fill:#F4BC48;" d="M98.807,79.397c-2.943,0-5.735-1.744-6.932-4.632l-7.132-17.218
		c-1.586-3.827,0.231-8.214,4.059-9.799c3.828-1.586,8.214,0.233,9.799,4.059l7.132,17.218c1.586,3.827-0.231,8.214-4.059,9.799
		C100.735,79.213,99.763,79.397,98.807,79.397z"/>
	<path style="fill:#F4BC48;" d="M35.094,143.104c-0.957,0-1.929-0.184-2.867-0.573l-17.218-7.132
		c-3.827-1.585-5.644-5.973-4.059-9.799c1.586-3.827,5.975-5.642,9.799-4.059l17.218,7.132c3.827,1.585,5.645,5.973,4.059,9.799
		C40.829,141.36,38.037,143.104,35.094,143.104z"/>
	<path style="fill:#F4BC48;" d="M17.882,240.33c-2.943,0-5.735-1.744-6.932-4.632c-1.586-3.827,0.231-8.214,4.059-9.799
		l17.218-7.132c3.828-1.585,8.214,0.232,9.799,4.059c1.586,3.827-0.231,8.214-4.059,9.799l-17.218,7.132
		C19.81,240.146,18.838,240.33,17.882,240.33z"/>
	<path style="fill:#F4BC48;" d="M91.669,314.123c-0.957,0-1.929-0.184-2.867-0.573c-3.827-1.585-5.645-5.973-4.059-9.799
		l7.132-17.218c1.586-3.827,5.975-5.642,9.799-4.059c3.827,1.586,5.645,5.973,4.059,9.799l-7.132,17.218
		C97.404,312.379,94.612,314.123,91.669,314.123z"/>
	<path style="fill:#F4BC48;" d="M196.033,314.123c-2.943,0-5.735-1.744-6.932-4.632l-7.132-17.218
		c-1.586-3.827,0.232-8.214,4.059-9.799c3.828-1.586,8.214,0.233,9.799,4.059l7.132,17.218c1.586,3.827-0.232,8.214-4.059,9.799
		C197.962,313.939,196.989,314.123,196.033,314.123z"/>
	<path style="fill:#F4BC48;" d="M269.819,240.33c-0.957,0-1.929-0.184-2.867-0.573l-17.218-7.132
		c-3.827-1.586-5.645-5.973-4.059-9.799c1.585-3.827,5.975-5.644,9.799-4.059l17.218,7.132c3.827,1.586,5.645,5.973,4.059,9.799
		C275.555,238.586,272.763,240.33,269.819,240.33z"/>
	<path style="fill:#F4BC48;" d="M227.087,104.913c-1.92,0-3.839-0.732-5.304-2.197c-2.929-2.929-2.929-7.678,0.001-10.606
		l13.179-13.178c2.929-2.93,7.678-2.929,10.606,0c2.929,2.929,2.929,7.678-0.001,10.606l-13.179,13.178
		C230.926,104.18,229.006,104.913,227.087,104.913z"/>
	<path style="fill:#F4BC48;" d="M143.851,70.435c-4.143,0-7.5-3.358-7.5-7.5V44.298c0-4.142,3.357-7.5,7.5-7.5s7.5,3.358,7.5,7.5
		v18.636C151.351,67.077,147.993,70.435,143.851,70.435z"/>
	<path style="fill:#F4BC48;" d="M60.614,104.913c-1.92,0-3.839-0.732-5.304-2.197L42.133,89.538
		c-2.929-2.929-2.929-7.678,0.001-10.606c2.928-2.93,7.677-2.929,10.606,0L65.918,92.11c2.929,2.929,2.929,7.678-0.001,10.606
		C64.453,104.18,62.533,104.913,60.614,104.913z"/>
	<path style="fill:#F4BC48;" d="M26.137,188.149H7.5c-4.143,0-7.5-3.358-7.5-7.5s3.357-7.5,7.5-7.5h18.637
		c4.143,0,7.5,3.358,7.5,7.5S30.279,188.149,26.137,188.149z"/>
	<path style="fill:#F4BC48;" d="M47.437,284.564c-1.919,0-3.839-0.732-5.304-2.197c-2.929-2.929-2.929-7.678,0-10.606l13.178-13.178
		c2.93-2.929,7.678-2.929,10.607,0c2.929,2.929,2.929,7.678,0,10.607L52.74,282.367C51.275,283.831,49.355,284.564,47.437,284.564z"
		/>
	<path style="fill:#F4BC48;" d="M143.851,324.5c-4.143,0-7.5-3.358-7.5-7.5v-18.636c0-4.142,3.357-7.5,7.5-7.5s7.5,3.358,7.5,7.5
		V317C151.351,321.142,147.993,324.5,143.851,324.5z"/>
	<path style="fill:#F4BC48;" d="M240.266,284.564c-1.919,0-3.839-0.732-5.303-2.196l-13.179-13.178
		c-2.93-2.929-2.93-7.678-0.001-10.607c2.93-2.929,7.679-2.929,10.606-0.001l13.179,13.178c2.93,2.929,2.93,7.678,0.001,10.607
		C244.105,283.831,242.185,284.564,240.266,284.564z"/>
	<path style="fill:#F4BC48;" d="M280.201,188.149h-18.636c-4.142,0-7.5-3.358-7.5-7.5s3.358-7.5,7.5-7.5h18.636
		c4.143,0,7.5,3.358,7.5,7.5S284.344,188.149,280.201,188.149z"/>
</g>
<path style="fill:#495059;" d="M199.305,366.39c-15.519,0-29.873-7.035-39.381-19.301s-12.741-27.921-8.872-42.951l39.743-154.342
	c5.669-22.02,25.511-37.402,48.253-37.402h223.101c15.519,0,29.873,7.035,39.381,19.301c9.508,12.266,12.741,27.921,8.872,42.951
	l-39.743,154.341c-5.669,22.02-25.511,37.402-48.253,37.402L199.305,366.39L199.305,366.39z"/>
<path style="fill:#41464F;" d="M303.217,112.395h-64.169c-22.742,0-42.585,15.382-48.253,37.402l-39.743,154.342
	c-3.87,15.03-0.636,30.684,8.872,42.951c9.508,12.266,23.862,19.301,39.381,19.301h223.101c17.328,0,32.966-8.936,41.94-22.929
	C320.27,312.645,290.858,166.212,303.217,112.395z"/>
<path style="fill:#7FAFE3;" d="M422.406,332.456H199.305c-10.386,0-17.981-9.798-15.391-19.856l39.743-154.34
	c1.808-7.022,8.14-11.93,15.391-11.93h223.101c10.386,0,17.981,9.798,15.391,19.856l-39.743,154.34
	C435.988,327.548,429.657,332.456,422.406,332.456z"/>
<path style="fill:#73A3D6;" d="M426.653,331.869c-90.887-37.445-123.045-127.202-125.785-185.54h-61.82
	c-7.251,0-13.583,4.908-15.391,11.93L183.914,312.6c-2.59,10.058,5.005,19.856,15.391,19.856h223.101
	C423.87,332.456,425.293,332.247,426.653,331.869z"/>
<path style="fill:#C0E5FF;" d="M464.745,215.872l3.862-15h-77.563l14.045-54.542H389.6l-14.045,54.542h-69.82l14.045-54.542h-15.488
	l-14.045,54.542h-77.564l-3.862,15h77.563l-12.113,47.042h-77.564l-3.862,15h77.564l-14.045,54.542h15.488l14.045-54.542h69.819
	l-14.045,54.542h15.488l14.045-54.542h77.563l3.863-15h-77.563l12.113-47.042L464.745,215.872L464.745,215.872z M359.58,262.914
	h-69.82l12.113-47.042h69.82L359.58,262.914z"/>
<path style="fill:#B2B5B8;" d="M289.781,366.39v75.096h45.045c-9.153-12.617-14.987-29.708-16.745-46.089
	c-0.587-5.467,3.648-10.252,9.147-10.252h44.444V366.39H289.781z"/>
<g>
</g>
<g>
</g>
<g>
</g>
<g>
</g>
<g>
</g>
<g>
</g>
<g>
</g>
<g>
</g>
<g>
</g>
<g>
</g>
<g>
</g>
<g>
</g>
<g>
</g>
<g>
</g>
<g>
</g>
</svg>
