<svg id="Capa_1" enable-background="new 0 0 510 510" height="512" viewBox="0 0 510 510" width="512" xmlns="http://www.w3.org/2000/svg"><g><path d="m510 261.9v243.1c0 2.76-2.24 5-5 5h-500c-2.76 0-5-2.24-5-5v-243.1c0-2.6 2.12-4.87 4.71-4.99 30.17-1.47 48.39-16.72 55.55-24.15 1.94-2.02 5.17-2.05 7.13-.04 31.761 32.569 88.511 32.628 120.32-.1 1.93-1.99 5.15-1.99 7.08 0 14.96 15.39 35.32 24.4 60.21 24.4 25.03 0 45.34-9.1 60.21-24.4 1.93-1.99 5.15-1.99 7.08 0 14.96 15.39 35.32 24.4 60.21 24.4 25.03 0 45.35-9.1 60.21-24.4 1.94-2 5.17-1.97 7.11.03 14.39 14.8 33.29 23.2 55.36 24.26 2.69.13 4.82 2.3 4.82 4.99z" fill="#29b2eb"/><path d="m510 261.9v243.1c0 2.76-2.24 5-5 5h-250v-252.98c25.03 0 45.34-9.1 60.21-24.4 1.93-1.99 5.15-1.99 7.08 0 14.96 15.39 35.32 24.4 60.21 24.4 25.03 0 45.35-9.1 60.21-24.4 1.94-2 5.17-1.97 7.11.03 14.39 14.8 33.29 23.2 55.36 24.26 2.69.13 4.82 2.3 4.82 4.99z" fill="#0095ff"/><path d="m491.61 391.64c-1.774 51.289-44.198 93.08-96.46 93.08-52.47 0-94.85-42.16-96.47-93.4-1.02-32.63 14.16-61.74 38.1-79.95 1.26-.96 2.02-2.43 2.02-4.02v-251c0-31.1 25.23-56.34 56.35-56.35 31.401 0 56.35 26.04 56.35 57.19v250.16c0 1.54.71 3.01 1.93 3.95 24.07 18.26 39.32 47.54 38.18 80.34z" fill="#ebe9eb"/><path d="m491.61 391.64c-1.774 51.289-44.198 93.08-96.46 93.08v-484.72c31.401 0 56.35 26.04 56.35 57.19v250.16c0 1.54.71 3.01 1.93 3.95 24.07 18.26 39.32 47.54 38.18 80.34z" fill="#d8d2d7"/><path d="m410.154 63.07v68.29l-15 13-15-13v-68.29c0-8.28 6.72-15 15-15s15 6.72 15 15z" fill="#685e68"/><path d="m410.154 63.07v68.29l-15 13v-96.29c8.28 0 15 6.72 15 15z" fill="#554e56"/><path d="m441.77 392.6c0 25.71-20.91 46.62-46.62 46.62-24.98 0-45.233-19.783-46.55-44.05-1.12-20.84 11.55-38.95 29.69-46.02 1.13-.44 1.86-1.56 1.86-2.77v-215.02h30v215.02c0 1.22.74 2.33 1.87 2.77 17.4 6.78 29.75 23.69 29.75 43.45z" fill="#ff712f"/><path d="m441.77 392.6c0 25.71-20.91 46.62-46.62 46.62v-307.86h15v215.02c0 1.22.74 2.33 1.87 2.77 17.4 6.78 29.75 23.69 29.75 43.45z" fill="#ff4949"/><g fill="#ebe9eb"><circle cx="164.535" cy="343.883" r="26.188"/><circle cx="73.761" cy="432.047" r="33.143"/><path d="m52.839 65.107c5.858-5.858 5.858-15.355 0-21.213-5.857-5.858-15.355-5.857-21.213 0-21.096 21.096-21.098 55.241 0 76.338 9.349 9.35 9.349 24.563 0 33.912-5.858 5.858-5.858 15.355 0 21.213 5.857 5.857 15.355 5.858 21.213 0 21.046-21.046 21.046-55.291 0-76.338-9.371-9.372-9.373-24.54 0-33.912z"/><path d="m130.227 65.107c5.858-5.858 5.858-15.355 0-21.213-5.856-5.858-15.354-5.857-21.213 0-21.096 21.096-21.098 55.241 0 76.338 9.371 9.371 9.373 24.539 0 33.912-5.858 5.858-5.858 15.355 0 21.213 5.857 5.858 15.354 5.858 21.213 0 21.097-21.097 21.098-55.24 0-76.339-9.372-9.371-9.373-24.539 0-33.911z"/><path d="m207.615 99.018c-9.371-9.37-9.373-24.539 0-33.911 5.858-5.858 5.858-15.355 0-21.213-5.856-5.858-15.354-5.857-21.213 0-21.096 21.096-21.098 55.241 0 76.338 9.371 9.371 9.373 24.539 0 33.912-5.858 5.858-5.858 15.355 0 21.213 5.857 5.858 15.354 5.858 21.213 0 21.096-21.098 21.097-55.241 0-76.339z"/></g></g></svg>